<svg width="66" height="70" fill="none" xmlns="http://www.w3.org/2000/svg"><path d="M65.316 48.339l-18.47-18.605 2.05-10.097a4.655 4.655 0 001.66.319h.014a4.723 4.723 0 10-4.394-3.14l-10.85 1.325L17.628.35a1.166 1.166 0 00-.824-.35c-.306.002-.6.124-.817.34L12.68 3.63a1.167 1.167 0 000 1.65l1.78 1.805a32.686 32.686 0 005.511 38.638c.094.09.202.161.32.213a6.77 6.77 0 00-.114 1.197v13.534h-14A5.84 5.84 0 00.342 66.5v2.333C.342 69.478.865 70 1.51 70h53.667c.644 0 1.166-.522 1.166-1.167V66.5a5.84 5.84 0 00-5.833-5.833h-14v-5.998c2.193.46 4.428.694 6.669.7a32.483 32.483 0 0015.4-3.901l1.79 1.8c.216.221.513.347.823.35.306-.002.6-.124.817-.34l3.308-3.29a1.167 1.167 0 000-1.65zM48.925 13.635a2.333 2.333 0 111.645 3.987h-.008a2.333 2.333 0 01-1.633-3.987h-.004zM46.178 21.3l-1.309 6.444-2.571-2.587 3.88-3.857zm-1.325-1.973l-4.2 4.176-3.25-3.267 7.45-.909zM50.509 63a3.5 3.5 0 013.5 3.5v1.167H2.676V66.5a3.5 3.5 0 013.5-3.5h44.333zm-16.333-4.667v2.334H22.509v-2.334h11.667zM22.509 56v-8.867c0-2.83 2.617-5.133 5.833-5.133 3.217 0 5.834 2.303 5.834 5.133V56H22.509zm14-3.71v-5.157c0-4.117-3.663-7.466-8.167-7.466a8.312 8.312 0 00-7.177 3.907A30.34 30.34 0 0116.18 8.82l40.692 40.925a30.233 30.233 0 01-20.363 2.544zm24.695-1.496l-1.644-1.653L16.792 6.116l-1.65-1.655 1.65-1.645L34.15 20.272c.008 0 .013.015.021.021l28.688 28.856-1.655 1.645z" fill="#212121"/><path d="M28.353 44.333h-.01a3.5 3.5 0 00-.011 7h.01a3.5 3.5 0 10.01-7zm.816 4.328a1.167 1.167 0 11-.827-1.994 1.166 1.166 0 01.817 1.993h.01z" fill="#2196F3"/></svg>