<svg width="41" height="43" fill="none" xmlns="http://www.w3.org/2000/svg"><path d="M6.345 41.795a.118.118 0 01.08.034l.206.216c-.16.174-.357.314-.579.409-.26.104-.539.154-.82.147a2.01 2.01 0 01-.772-.137 1.672 1.672 0 01-.957-.986 2.163 2.163 0 01-.13-.767 2.017 2.017 0 01.14-.77c.09-.222.226-.425.4-.597.175-.17.385-.302.617-.39.253-.094.523-.14.794-.137.253-.006.504.036.739.125.203.084.39.2.553.345l-.173.23a.173.173 0 01-.044.042.11.11 0 01-.069.018.157.157 0 01-.075-.025l-.092-.061-.129-.079a1.4 1.4 0 00-.406-.137 1.643 1.643 0 00-.306-.024 1.532 1.532 0 00-.571.102 1.29 1.29 0 00-.448.29c-.128.133-.227.29-.29.46-.073.195-.109.401-.106.608-.003.21.033.42.106.618.062.169.16.325.285.458.118.125.264.222.427.285.168.066.348.1.53.098.105.001.21-.005.314-.02.17-.02.332-.076.476-.164.072-.045.14-.096.203-.152a.153.153 0 01.097-.04zM12.287 40.71c.003.26-.044.52-.139.763a1.655 1.655 0 01-.387.592 1.754 1.754 0 01-.608.388 2.296 2.296 0 01-1.564 0 1.777 1.777 0 01-.604-.39 1.74 1.74 0 01-.391-.597 2.167 2.167 0 010-1.527c.087-.223.22-.427.39-.6a1.78 1.78 0 01.605-.375 2.258 2.258 0 011.564 0c.228.088.435.22.607.39.17.17.301.37.388.59.095.245.143.505.14.767zm-.54 0a1.759 1.759 0 00-.098-.612 1.208 1.208 0 00-.71-.747 1.658 1.658 0 00-1.137 0 1.208 1.208 0 00-.712.747c-.13.4-.13.827 0 1.226a1.203 1.203 0 00.712.745c.367.13.77.13 1.137 0 .166-.064.314-.162.435-.287.123-.134.217-.29.275-.458.07-.198.102-.405.098-.613zM16.34 41.353l.055.137c.02-.049.038-.093.059-.137a1.28 1.28 0 01.067-.135l1.314-2.276c.026-.04.05-.064.075-.071a.323.323 0 01.108-.012h.388v3.702h-.46V39.84v-.115a1.13 1.13 0 010-.128l-1.322 2.309a.202.202 0 01-.078.084.216.216 0 01-.113.03h-.074c-.04.001-.08-.01-.113-.03a.2.2 0 01-.077-.084l-1.361-2.324v2.973h-.445v-3.695h.388a.323.323 0 01.108.012.15.15 0 01.072.071l1.343 2.279a.812.812 0 01.067.132zM21.287 41.17v1.386h-.514V38.86h1.147a2.25 2.25 0 01.64.08c.167.045.321.124.453.23.114.1.202.225.257.363.06.151.09.312.088.473.002.162-.03.323-.096.473a1.013 1.013 0 01-.277.37 1.27 1.27 0 01-.456.245c-.2.061-.41.09-.62.086l-.622-.01zm0-.398h.623c.135.002.27-.017.398-.056a.843.843 0 00.288-.16.651.651 0 00.175-.244.768.768 0 00.062-.312.677.677 0 00-.052-.3.707.707 0 00-.18-.253 1.033 1.033 0 00-.691-.199h-.623v1.524zM28.201 42.561h-.406a.181.181 0 01-.114-.034.226.226 0 01-.067-.086l-.35-.894h-1.756l-.363.894a.2.2 0 01-.064.083.181.181 0 01-.116.037h-.406l1.543-3.703h.535l1.564 3.703zm-2.546-1.375h1.45l-.612-1.507a2.6 2.6 0 01-.116-.348l-.059.194a1.84 1.84 0 01-.056.157l-.607 1.504zM30.423 38.875c.031.017.058.04.078.067l2.25 2.79v-.129-2.745h.46v3.703h-.257a.23.23 0 01-.105-.022.283.283 0 01-.082-.069l-2.249-2.788c.003.042.003.085 0 .127v2.753h-.46v-3.704h.273c.032 0 .063.005.092.017zM37.003 41.088v1.47h-.515v-1.47l-1.422-2.23h.46a.173.173 0 01.111.032.314.314 0 01.07.084l.89 1.438c.035.061.066.118.092.172.026.053.046.105.064.156l.067-.159a1.3 1.3 0 01.088-.169l.877-1.448a.379.379 0 01.067-.079.161.161 0 01.11-.036h.466l-1.425 2.24zM16.086 32.644c.224.027.45.05.68.069 3.47-1.48 6.406-3.9 8.44-6.96 2.035-3.06 3.077-6.624 2.998-10.246l-3.825-3.644a20.22 20.22 0 01-1.05 11.512c-1.465 3.67-3.973 6.88-7.243 9.27z" fill="#AFB1B8"/><path d="M14.72 32.475l.103.02c3.494-2.382 6.159-5.707 7.648-9.546a19.54 19.54 0 00.707-11.99L17.73 5.77a24.082 24.082 0 012.558 13.768c-.533 4.728-2.464 9.214-5.568 12.938zM33.196 19.786c-.925 3.98-3.173 7.568-6.41 10.234a20.218 20.218 0 01-3.045 2.082 18.187 18.187 0 007.08-3.813 17.085 17.085 0 004.585-6.4l-2.21-2.103z" fill="#AFB1B8"/><path d="M32.33 19.2l-3.146-2.997a18.474 18.474 0 01-2.953 9.67c-1.873 2.915-4.532 5.299-7.699 6.903h.016c.706 0 1.41-.04 2.112-.12a19.338 19.338 0 007.61-5.33 18.092 18.092 0 004.06-8.126zM15.176 3.58L11.423 0c-3.355 1.235-6.24 3.406-8.278 6.23C1.107 9.053.01 12.397 0 15.823c.013 3.787 1.35 7.46 3.801 10.441 2.451 2.98 5.875 5.097 9.731 6.015 3.442-3.995 5.457-8.932 5.753-14.093.295-5.161-1.144-10.277-4.11-14.606zM41 18.649c-.014-4.492-1.893-8.797-5.227-11.973-3.334-3.177-7.852-4.967-12.567-4.98-2.179-.002-4.34.381-6.371 1.13l22.977 21.89A16.072 16.072 0 0041 18.65z" fill="#AFB1B8"/></svg>