<svg width="80" height="43" fill="none" xmlns="http://www.w3.org/2000/svg"><path d="M12.402 12.83h-.003c-2.262 0-4.096 1.788-4.096 3.992v.003c0 2.204 1.834 3.992 4.096 3.992h.003c2.262 0 4.096-1.788 4.096-3.992v-.003c0-2.204-1.834-3.991-4.096-3.991zM42.637 11.555c-.007-3.063-1.258-5.997-3.48-8.163C36.938 1.227 33.926.007 30.784 0c-3.143.006-6.156 1.225-8.379 3.39-2.223 2.166-3.474 5.102-3.48 8.165V28.44s23.71-2.573 23.713-16.883v-.002zM0 33.982a7.96 7.96 0 002.422 5.68 8.384 8.384 0 005.827 2.362 8.384 8.384 0 005.826-2.361 7.96 7.96 0 002.423-5.678v-11.75S0 24.029 0 33.983zm8.25 2.105a2.2 2.2 0 01-1.201-.354 2.117 2.117 0 01-.796-.945 2.055 2.055 0 01-.123-1.216c.084-.409.29-.784.592-1.078a2.178 2.178 0 011.106-.576c.419-.082.853-.04 1.248.12.395.159.732.429.97.775a2.067 2.067 0 01.201 1.977c-.108.257-.267.49-.467.686-.201.196-.44.352-.702.458a2.21 2.21 0 01-.829.161v-.008zM25.09 34.781h-1.688v1.743h-.88V32.26H25.3v.712h-1.898v1.101h1.687v.71zm4.224-.293c0 .42-.075.788-.223 1.105-.148.316-.361.56-.639.732a1.755 1.755 0 01-.949.258 1.694 1.694 0 01-1.59-.981 2.511 2.511 0 01-.232-1.09V34.3c0-.42.075-.79.226-1.108.152-.32.366-.565.641-.735.277-.172.594-.258.95-.258.355 0 .67.086.946.258.277.17.49.415.641.735.152.319.229.687.229 1.105v.19zm-.89-.193c0-.447-.081-.787-.241-1.02a.783.783 0 00-.686-.348.782.782 0 00-.682.346c-.16.228-.242.564-.244 1.007v.208c0 .436.08.774.24 1.014.16.24.391.36.692.36a.775.775 0 00.68-.345c.158-.233.238-.57.24-1.014v-.208zm3.74 1.11a.447.447 0 00-.176-.38c-.117-.09-.328-.184-.632-.282a4.56 4.56 0 01-.724-.293c-.484-.262-.727-.614-.727-1.057 0-.23.065-.436.194-.616.13-.181.317-.323.56-.425.244-.101.517-.152.82-.152.304 0 .576.056.814.167.239.11.423.265.554.466.133.201.2.43.2.686h-.88c0-.196-.061-.347-.184-.454-.123-.11-.296-.165-.519-.165-.215 0-.382.046-.5.138a.426.426 0 00-.18.358c0 .138.07.254.208.348.141.094.347.182.619.264.5.15.864.337 1.092.56.229.222.343.5.343.831 0 .37-.14.66-.419.87-.28.21-.655.314-1.128.314-.328 0-.627-.06-.896-.179a1.439 1.439 0 01-.618-.495 1.27 1.27 0 01-.211-.726h.881c0 .47.282.706.844.706.21 0 .372-.042.49-.126a.418.418 0 00.175-.358zm4.69-2.434h-1.306v3.553h-.879v-3.553H33.38v-.712h3.475v.712zm3.071 1.705h-1.688v1.142h1.981v.706h-2.86V32.26h2.854v.712h-1.975v1.016h1.688v.689zm2.388.287h-.7v1.561h-.88V32.26h1.586c.503 0 .892.112 1.166.337.273.224.41.542.41.952 0 .29-.064.534-.19.73a1.282 1.282 0 01-.572.462l.923 1.743v.041h-.944l-.8-1.561zm-.7-.712h.709c.22 0 .391-.056.512-.167a.607.607 0 00.182-.466c0-.201-.058-.36-.173-.474-.113-.116-.288-.173-.524-.173h-.707v1.28zm5.326.77v1.503h-.88V32.26h1.665c.32 0 .601.058.844.176.244.117.431.284.562.5.131.215.196.46.196.736 0 .418-.143.748-.43.99-.285.24-.68.36-1.187.36h-.77zm0-.711h.785c.232 0 .41-.055.53-.165.123-.109.185-.265.185-.468a.704.704 0 00-.185-.507c-.123-.129-.293-.195-.51-.2h-.805v1.34zm5.56.366h-1.687v1.142h1.98v.706h-2.86V32.26h2.854v.712h-1.974v1.016h1.687v.689zm4.078-1.705h-1.306v3.553h-.88v-3.553h-1.288v-.712h3.474v.712zm3.07 1.705H57.96v1.142h1.98v.706h-2.859V32.26h2.854v.712H57.96v1.016h1.688v.689zm2.388.287h-.7v1.561h-.879V32.26h1.585c.504 0 .893.112 1.166.337.274.224.41.542.41.952 0 .29-.063.534-.19.73a1.282 1.282 0 01-.571.462l.923 1.743v.041h-.944l-.8-1.561zm-.7-.712h.71c.22 0 .39-.056.512-.167a.607.607 0 00.181-.466c0-.201-.057-.36-.172-.474-.114-.116-.288-.173-.525-.173h-.706v1.28zm5.165 1.154a.447.447 0 00-.175-.38c-.118-.09-.329-.184-.633-.282a4.565 4.565 0 01-.724-.293c-.484-.262-.727-.614-.727-1.057 0-.23.065-.436.194-.616.13-.181.317-.323.56-.425.243-.101.517-.152.82-.152.304 0 .576.056.814.167.238.11.423.265.554.466.133.201.2.43.2.686h-.88c0-.196-.061-.347-.184-.454-.123-.11-.296-.165-.519-.165-.215 0-.382.046-.5.138a.426.426 0 00-.18.358c0 .138.07.254.208.348.141.094.347.182.618.264.5.15.865.337 1.093.56.229.222.343.5.343.831 0 .37-.14.66-.419.87-.28.21-.655.314-1.128.314-.328 0-.627-.06-.896-.179a1.438 1.438 0 01-.618-.495 1.27 1.27 0 01-.211-.726h.882c0 .47.28.706.843.706.21 0 .372-.042.49-.126a.418.418 0 00.175-.358z" fill="#2196F3"/></svg>